<svg width="512" height="512" viewBox="0 0 512 512" fill="none" xmlns="http://www.w3.org/2000/svg">

<path d="M512 0H0V512H512V0Z" fill="#F8FAFC"/>
<path opacity="0.7" d="M214 149.801C214 140.959 223.868 135.786 231.113 140.655L231.457 140.896L377.938 247.095C383.996 251.487 383.996 260.513 377.938 264.905L231.457 371.104C224.185 376.377 214 371.182 214 362.199V149.801Z" stroke="#F59E0B" stroke-width="12"/>
<path d="M174 177.662C174 165.225 187.567 157.544 198.231 163.942L328.796 242.28C339.153 248.495 339.153 263.505 328.796 269.72L198.231 348.058C187.567 354.456 174 346.775 174 334.338V177.662Z" fill="#1E3A5F" stroke="#F8FAFC" stroke-width="12"/>

</svg>
